<svg xmlns="http://www.w3.org/2000/svg" xmlns:xlink="http://www.w3.org/1999/xlink" width="500" zoomAndPan="magnify" viewBox="0 0 375 374.999991" height="500" preserveAspectRatio="xMidYMid meet" version="1.0"><defs><g/><clipPath id="id1"><path d="M 60 68 L 235 68 L 235 261 L 60 261 Z M 60 68 " clip-rule="nonzero"/></clipPath><clipPath id="id2"><path d="M 69.503906 57.652344 L 342.28125 94.457031 L 316.707031 283.988281 L 43.929688 247.183594 Z M 69.503906 57.652344 " clip-rule="nonzero"/></clipPath><clipPath id="id3"><path d="M 69.503906 57.652344 L 342.28125 94.457031 L 316.707031 283.988281 L 43.929688 247.183594 Z M 69.503906 57.652344 " clip-rule="nonzero"/></clipPath><clipPath id="id4"><path d="M 108 85 L 334 85 L 334 267 L 108 267 Z M 108 85 " clip-rule="nonzero"/></clipPath><clipPath id="id5"><path d="M 69.503906 57.652344 L 342.28125 94.457031 L 316.707031 283.988281 L 43.929688 247.183594 Z M 69.503906 57.652344 " clip-rule="nonzero"/></clipPath><clipPath id="id6"><path d="M 69.503906 57.652344 L 342.28125 94.457031 L 316.707031 283.988281 L 43.929688 247.183594 Z M 69.503906 57.652344 " clip-rule="nonzero"/></clipPath></defs><rect x="-37.5" width="450" fill="#ffffff" y="-37.499999" height="449.999989" fill-opacity="1"/><rect x="-37.5" width="450" fill="#ffffff" y="-37.499999" height="449.999989" fill-opacity="1"/><rect x="-37.5" width="450" fill="#ffffff" y="-37.499999" height="449.999989" fill-opacity="1"/><rect x="-37.5" width="450" fill="#ffffff" y="-37.499999" height="449.999989" fill-opacity="1"/><g clip-path="url(#id1)"><g clip-path="url(#id2)"><g clip-path="url(#id3)"><path fill="#babfb7" d="M 183.234375 239.308594 C 181.800781 238.910156 180.347656 238.589844 178.902344 238.222656 L 176.734375 237.683594 L 174.546875 237.214844 L 170.164062 236.289062 L 165.742188 235.523438 L 163.53125 235.148438 L 161.3125 234.84375 L 156.859375 234.238281 L 152.386719 233.777344 L 150.144531 233.550781 L 147.878906 233.398438 C 141.828125 233.019531 135.761719 233 129.746094 233.371094 C 121.199219 233.875 112.730469 235 104.410156 236.621094 C 105.640625 231.601562 106.582031 226.476562 107.191406 221.308594 C 111.554688 220.335938 116.105469 219.554688 120.648438 218.902344 C 126.171875 218.109375 131.75 217.488281 137.328125 217.050781 C 142.90625 216.621094 148.496094 216.367188 154.058594 216.417969 C 156.835938 216.449219 159.589844 216.554688 162.359375 216.753906 C 165.140625 216.921875 167.90625 217.222656 170.679688 217.550781 C 192.828125 220.320312 214.476562 228.320312 233.621094 240.550781 L 234.03125 239.964844 C 224.90625 233.105469 215.015625 227.203125 204.542969 222.425781 C 194.074219 217.65625 183.019531 214.027344 171.644531 211.699219 C 168.796875 211.132812 165.9375 210.605469 163.054688 210.210938 C 160.171875 209.785156 157.242188 209.519531 154.347656 209.289062 C 148.535156 208.867188 142.742188 208.773438 136.957031 208.859375 C 131.171875 208.941406 125.398438 209.222656 119.625 209.683594 C 115.757812 210.003906 111.917969 210.375 108.019531 210.921875 C 108.246094 205.425781 108.148438 199.921875 107.683594 194.484375 C 106.984375 185.832031 105.777344 177.230469 104.003906 168.773438 C 103.117188 164.542969 102.070312 160.351562 100.820312 156.222656 C 99.570312 152.097656 98.148438 148.03125 96.390625 144.125 C 97.386719 148.289062 98.117188 152.476562 98.65625 156.6875 C 99.1875 160.894531 99.542969 165.117188 99.785156 169.339844 C 100.113281 175.394531 100.1875 181.445312 100.046875 187.480469 C 95.882812 183.476562 92.046875 179.125 88.648438 174.542969 C 86.089844 171.078125 83.8125 167.457031 81.894531 163.746094 C 80.9375 161.890625 80.082031 160.011719 79.371094 158.121094 C 79.199219 157.648438 79.015625 157.175781 78.859375 156.707031 C 78.699219 156.242188 78.539062 155.761719 78.390625 155.246094 L 77.933594 153.746094 L 77.527344 152.234375 C 75.390625 144.144531 74.652344 135.6875 75.414062 127.410156 C 75.765625 123.277344 76.515625 119.160156 77.5625 115.210938 C 78.648438 111.277344 80.117188 107.492188 81.976562 104.019531 C 83.839844 100.550781 86.050781 97.371094 88.65625 94.730469 C 89.953125 93.410156 91.34375 92.21875 92.816406 91.171875 C 93.539062 90.671875 94.339844 90.136719 95.164062 89.65625 C 95.984375 89.171875 96.816406 88.703125 97.679688 88.277344 C 101.097656 86.527344 104.789062 85.386719 108.496094 84.472656 C 112.203125 83.570312 116 82.855469 119.886719 82.730469 C 121.832031 82.667969 123.757812 82.785156 125.714844 83.070312 C 127.851562 83.425781 130 83.859375 132.128906 84.363281 C 136.390625 85.386719 140.632812 86.652344 144.761719 88.25 C 148.910156 89.804688 152.960938 91.699219 156.796875 94.015625 C 160.652344 96.308594 164.277344 99.046875 167.507812 102.367188 L 167.695312 102.230469 C 166.628906 100.160156 165.351562 98.175781 163.933594 96.289062 C 162.511719 94.394531 160.964844 92.578125 159.285156 90.886719 C 155.929688 87.496094 152.199219 84.441406 148.25 81.695312 C 144.273438 78.992188 140.09375 76.546875 135.722656 74.449219 C 133.542969 73.394531 131.3125 72.402344 129.046875 71.484375 C 126.585938 70.511719 124.003906 69.714844 121.386719 69.167969 C 116.144531 68.03125 110.664062 67.808594 105.378906 68.695312 C 100.078125 69.566406 95.023438 71.488281 90.292969 73.953125 C 89.109375 74.570312 87.945312 75.238281 86.808594 75.949219 C 85.667969 76.648438 84.566406 77.402344 83.425781 78.234375 C 81.183594 79.894531 79.113281 81.746094 77.234375 83.730469 C 73.476562 87.714844 70.460938 92.199219 68.132812 96.890625 C 65.769531 101.574219 64.0625 106.46875 62.859375 111.421875 C 61.703125 116.386719 60.9375 121.355469 60.695312 126.390625 C 60.464844 131.414062 60.628906 136.445312 61.289062 141.40625 C 61.933594 146.371094 62.980469 151.285156 64.53125 156.039062 L 65.113281 157.816406 L 65.753906 159.582031 C 66.164062 160.738281 66.679688 161.988281 67.183594 163.152344 C 68.214844 165.507812 69.382812 167.761719 70.640625 169.925781 C 73.164062 174.257812 76.074219 178.242188 79.199219 181.988281 C 82.324219 185.738281 85.703125 189.210938 89.289062 192.457031 C 92.460938 195.332031 95.820312 197.984375 99.335938 200.441406 C 99.132812 202.613281 98.882812 204.773438 98.574219 206.9375 C 98.003906 211.015625 97.183594 215.054688 96.269531 219.0625 C 95.8125 221.070312 95.300781 223.066406 94.808594 225.0625 L 93.207031 231.027344 L 89.777344 243.007812 L 89.773438 243.011719 L 87 252.921875 L 97.007812 250.800781 C 102.652344 249.605469 108.242188 248.429688 113.855469 247.390625 C 116.664062 246.890625 119.464844 246.402344 122.277344 245.972656 C 123.683594 245.75 125.085938 245.554688 126.492188 245.371094 C 127.898438 245.167969 129.304688 245 130.710938 244.824219 C 132.117188 244.652344 133.523438 244.523438 134.933594 244.371094 L 139.15625 244.023438 C 141.976562 243.824219 144.792969 243.664062 147.605469 243.636719 L 149.722656 243.605469 L 151.863281 243.625 L 156.140625 243.667969 L 160.421875 243.851562 L 162.5625 243.949219 L 164.703125 244.105469 C 170.414062 244.480469 176.113281 245.171875 181.804688 246.023438 C 187.488281 246.917969 193.152344 248.03125 198.773438 249.382812 C 210.035156 252.066406 221.121094 255.71875 231.976562 260.15625 C 221.960938 254.058594 211.308594 248.863281 200.199219 244.734375 C 194.636719 242.699219 188.992188 240.828125 183.234375 239.308594 Z M 183.234375 239.308594 " fill-opacity="1" fill-rule="nonzero"/></g></g></g><g clip-path="url(#id4)"><g clip-path="url(#id5)"><g clip-path="url(#id6)"><path fill="#babfb7" d="M 333.714844 153.265625 C 333.816406 148.921875 333.59375 144.605469 333.113281 140.328125 C 332.621094 136.035156 331.839844 131.710938 330.621094 127.417969 C 329.386719 123.117188 327.75 118.878906 325.550781 114.769531 C 323.347656 110.601562 320.480469 106.71875 317.175781 103.289062 C 313.847656 99.886719 310.0625 96.957031 306.042969 94.59375 C 297.957031 89.878906 289.101562 87.335938 280.375 86.226562 C 276.011719 85.652344 271.597656 85.496094 267.347656 85.542969 C 263.074219 85.601562 258.8125 85.917969 254.605469 86.457031 C 246.183594 87.519531 237.960938 89.453125 230.035156 92.058594 C 226.070312 93.351562 222.167969 94.792969 218.351562 96.398438 C 214.535156 98.007812 210.785156 99.746094 207.175781 101.53125 C 203.554688 103.304688 200.027344 105.152344 196.574219 106.96875 C 193.117188 108.78125 189.707031 110.554688 186.3125 112.207031 C 184.617188 113.050781 182.933594 113.859375 181.246094 114.644531 L 175.953125 117.054688 C 172.46875 118.621094 169.011719 120.074219 165.59375 121.363281 C 158.773438 123.957031 151.910156 125.75 145.710938 125.421875 C 139.40625 125.164062 133.027344 122.9375 126.945312 119.132812 C 123.890625 117.257812 120.921875 115.019531 118.023438 112.539062 C 115.113281 110.066406 112.304688 107.335938 109.394531 104.496094 L 108.765625 104.847656 C 109.722656 108.839844 111.261719 112.675781 113.230469 116.347656 C 115.21875 120.011719 117.667969 123.503906 120.632812 126.675781 C 123.613281 129.8125 127.101562 132.671875 131.109375 134.851562 C 132.113281 135.390625 133.132812 135.914062 134.191406 136.386719 C 135.25 136.84375 136.328125 137.261719 137.429688 137.632812 C 139.632812 138.398438 141.921875 138.925781 144.242188 139.269531 C 146.554688 139.621094 148.949219 139.753906 151.238281 139.683594 C 153.539062 139.628906 155.789062 139.433594 157.980469 139.109375 C 162.363281 138.480469 166.539062 137.457031 170.558594 136.265625 C 174.589844 135.078125 178.445312 133.648438 182.210938 132.222656 L 187.773438 130.0625 C 189.6875 129.300781 191.597656 128.53125 193.457031 127.714844 C 197.191406 126.082031 200.816406 124.371094 204.382812 122.683594 L 214.902344 117.703125 C 218.359375 116.082031 221.773438 114.597656 225.222656 113.234375 C 228.667969 111.847656 232.136719 110.574219 235.648438 109.46875 C 242.660156 107.253906 249.769531 105.527344 256.933594 104.617188 C 264.058594 103.691406 271.351562 103.421875 278.128906 104.238281 C 284.960938 105.042969 291.492188 106.96875 297.011719 110.132812 C 299.777344 111.707031 302.273438 113.609375 304.464844 115.78125 C 306.628906 117.984375 308.515625 120.441406 310.011719 123.203125 C 311.558594 125.996094 312.816406 129.101562 313.785156 132.335938 C 314.777344 135.574219 315.492188 138.984375 315.972656 142.484375 C 316.445312 145.992188 316.710938 149.535156 316.714844 153.046875 C 316.710938 156.554688 316.433594 160.03125 315.917969 163.433594 C 315.378906 166.828125 314.558594 170.140625 313.433594 173.316406 C 312.277344 176.476562 310.855469 179.492188 309.046875 182.363281 C 305.492188 188.121094 300.695312 193.300781 295.121094 197.558594 C 292.304688 199.691406 289.300781 201.683594 286.175781 203.425781 C 283.046875 205.175781 279.769531 206.679688 276.394531 208 C 273.019531 209.320312 269.539062 210.421875 265.980469 211.316406 C 264.308594 211.746094 262.625 212.128906 260.921875 212.46875 C 260.992188 211.910156 261.078125 211.359375 261.148438 210.800781 C 261.3125 209.597656 261.429688 208.390625 261.550781 207.179688 C 261.683594 205.96875 261.800781 204.757812 261.871094 203.542969 L 262 201.714844 L 262.0625 200.800781 L 262.066406 199.609375 C 262.027344 198.058594 261.835938 196.605469 261.554688 195.191406 C 260.980469 192.367188 260.082031 189.710938 258.71875 187.089844 C 258.035156 185.773438 257.230469 184.476562 256.1875 183.175781 C 255.90625 182.847656 255.652344 182.523438 255.347656 182.195312 C 255.023438 181.867188 254.695312 181.535156 254.359375 181.214844 C 254.011719 180.914062 253.660156 180.617188 253.300781 180.332031 C 252.9375 180.050781 252.566406 179.804688 252.199219 179.542969 C 249.175781 177.558594 246.019531 176.671875 243.167969 176.171875 C 240.300781 175.710938 237.589844 175.636719 235.152344 175.632812 C 230.203125 175.621094 225.316406 175.894531 220.5 176.386719 C 210.867188 177.347656 201.550781 179.03125 192.339844 180.320312 C 190.035156 180.636719 187.738281 180.945312 185.445312 181.195312 C 183.132812 181.476562 180.90625 181.628906 178.625 181.832031 C 174.089844 182.113281 169.542969 182.117188 164.996094 181.890625 C 160.457031 181.605469 155.929688 181.027344 151.445312 180.152344 C 146.964844 179.242188 142.550781 177.976562 138.214844 176.425781 C 133.878906 174.84375 129.6875 172.855469 125.570312 170.644531 C 121.492188 168.371094 117.578125 165.769531 113.757812 162.960938 C 117.011719 166.390625 120.503906 169.660156 124.308594 172.574219 C 128.128906 175.460938 132.191406 178.078125 136.476562 180.339844 C 140.78125 182.554688 145.28125 184.425781 149.910156 185.980469 C 154.566406 187.441406 159.328125 188.566406 164.15625 189.398438 C 168.996094 190.148438 173.878906 190.570312 178.777344 190.734375 L 182.445312 190.769531 C 183.675781 190.789062 184.886719 190.765625 186.089844 190.730469 C 188.5 190.675781 190.902344 190.570312 193.296875 190.449219 C 202.867188 189.964844 212.25 189.105469 221.433594 188.648438 C 226.023438 188.429688 230.558594 188.273438 235.046875 188.34375 C 236.183594 188.347656 237.261719 188.367188 238.269531 188.421875 C 239.28125 188.480469 240.246094 188.578125 241.136719 188.722656 C 242.917969 188.988281 244.386719 189.46875 245.335938 190.0625 L 245.679688 190.289062 C 245.777344 190.371094 245.878906 190.453125 245.980469 190.53125 C 246.070312 190.621094 246.15625 190.703125 246.253906 190.785156 L 246.585938 191.132812 C 247.046875 191.652344 247.53125 192.339844 248.003906 193.082031 C 248.9375 194.578125 249.78125 196.34375 250.398438 198.085938 C 250.710938 198.957031 250.976562 199.828125 251.152344 200.625 C 251.191406 200.816406 251.226562 201.007812 251.273438 201.203125 L 251.601562 203.769531 C 251.753906 204.910156 251.882812 206.058594 252.011719 207.203125 C 252.140625 208.347656 252.273438 209.5 252.367188 210.660156 C 252.828125 215.277344 253.015625 219.9375 252.976562 224.605469 C 252.914062 229.269531 252.703125 233.953125 252.394531 238.640625 C 251.773438 248.015625 250.648438 257.398438 249.367188 266.757812 L 250.070312 266.898438 C 252.367188 257.730469 254.628906 248.539062 256.546875 239.214844 C 257.5 234.59375 258.347656 229.933594 259.082031 225.242188 C 262.296875 224.941406 265.515625 224.515625 268.726562 223.933594 C 272.835938 223.164062 276.929688 222.140625 280.953125 220.847656 C 289.007812 218.246094 296.75 214.460938 303.835938 209.578125 C 310.960938 204.625 317.371094 198.429688 322.375 191.015625 C 324.882812 187.328125 326.984375 183.277344 328.660156 179.117188 C 330.304688 174.945312 331.527344 170.640625 332.367188 166.3125 C 333.1875 161.972656 333.597656 157.605469 333.714844 153.265625 Z M 333.714844 153.265625 " fill-opacity="1" fill-rule="nonzero"/></g></g></g><g fill="#000000" fill-opacity="1"><g transform="translate(187.499992, 201.749987)"><g/></g></g></svg>